<?xml version="1.0" encoding="utf-8"?>
<!-- Generator: Adobe Illustrator 24.3.0, SVG Export Plug-In . SVG Version: 6.00 Build 0)  -->
<svg version="1.1" id="Layer_1" xmlns="http://www.w3.org/2000/svg" xmlns:xlink="http://www.w3.org/1999/xlink" x="0px" y="0px"
	 viewBox="0 0 663.45 578.95" style="enable-background:new 0 0 663.45 578.95;" xml:space="preserve">
<style type="text/css">
	.st0{fill:#FFFCF7;}
</style>
<g>
	<path class="st0" d="M345.77,30.69c46.96,0.85,107.3,7.59,166.28,24.22c20.12,5.67,39.65,12.99,58.22,22.7
		c13.55,7.09,26.24,15.42,37.4,25.94c21.54,20.3,31.66,44.94,30.04,74.8c-2.2,40.25-19.83,71.55-52.85,94.11
		c-9.28,6.34-19.32,11.87-29.62,16.36c-32.26,14.06-66.28,20.6-101.38,21.83c-9.43,0.33-18.13-1.62-25.88-7.17
		c-13.47-9.64-19.39-26.34-15.17-42.78c4.05-15.77,18.12-27.64,34.93-28.65c18.7-1.13,37.3-2.78,55.42-7.81
		c12.21-3.39,23.95-7.92,34.29-15.48c9.8-7.16,16.71-16.21,19.57-28.31c3.07-12.99-0.18-24.04-8.95-33.77
		c-6.52-7.23-14.6-12.3-23.22-16.58c-14.49-7.19-29.87-11.84-45.53-15.64c-26.26-6.38-52.98-9.97-79.84-12.37
		c-29.9-2.67-59.88-4.41-89.92-2.97c-42.17,2.03-84.17,5.52-125.4,15.31c-13.98,3.32-27.87,7.11-40.78,13.46
		c-8.14,4-16.27,8.53-23.27,14.22c-22.05,17.96-16.81,41.85-4.79,56.7c6.43,7.94,14.84,13.35,23.99,17.62
		c15.93,7.44,32.84,11.3,50.2,13.31c8.63,1,17.32,1.5,25.99,2.23c18.96,1.59,33.34,15.17,35.85,33.84
		c2.59,19.21-8.16,36.82-26.51,42.81c-4.05,1.32-8.53,2.01-12.79,1.91c-40.94-0.97-80.24-9.07-116.96-27.83
		c-10.5-5.36-20.24-11.91-29.1-19.7c-32.78-28.84-44.4-65.56-39.25-108.05c1.81-14.97,8.8-28.11,18.23-39.88
		c10.49-13.08,23.48-23.17,37.77-31.71c18.77-11.22,38.91-19.33,59.72-25.82c33.72-10.51,68.3-16.95,103.31-21.2
		C274.29,32.87,302.87,30.54,345.77,30.69z"/>
	<path class="st0" d="M332.03,375.43c45.61,0,91.23,0,136.84,0.01c3.91,0,7.84-0.14,11.72,0.21c12.73,1.13,21.53,10.64,21.64,23.35
		c0.02,2.58-0.42,5.2-0.88,7.76c-4.87,27.28-14.27,52.78-30.08,75.68c-20.88,30.23-49.42,49.72-84.86,58.79
		c-37.8,9.69-75.74,9.48-113.29-1.28c-37.56-10.77-66.4-33.28-86.56-66.81c-12-19.95-19.52-41.61-24.16-64.33
		c-0.61-2.97-0.95-6.03-0.99-9.06c-0.19-13.48,8.62-23.13,22.05-24.16c3.89-0.3,7.81-0.16,11.72-0.16
		C240.8,375.43,286.41,375.43,332.03,375.43z"/>
</g>
</svg>
